<svg width="272" height="173" viewBox="0 0 272 173" fill="none" xmlns="http://www.w3.org/2000/svg">
<path fill-rule="evenodd" clip-rule="evenodd" d="M259 125H272V114V16H259H200V28H259V63H167V75H259V114H133V125H259Z" fill="white"/>
<path fill-rule="evenodd" clip-rule="evenodd" d="M29 63H16V74V172H29H88V160H29V125H121V113H29V74H155V63H29Z" fill="white"/>
<path d="M51.1591 32C49.8391 32 48.7831 31.604 47.9911 30.812C47.2231 30.02 46.8391 28.952 46.8391 27.608V18.032C46.8391 16.52 47.2351 15.356 48.0271 14.54C48.8191 13.7 49.9711 13.28 51.4831 13.28H55.4791V15.44H51.5551C51.0031 15.44 50.5591 15.632 50.2231 16.016C49.8871 16.376 49.7191 16.844 49.7191 17.42V27.86C49.7191 28.436 49.8871 28.916 50.2231 29.3C50.5831 29.66 51.0391 29.84 51.5911 29.84H55.4791V32H51.1591ZM57.992 13.28H60.224L60.548 14.612L61.448 14.18C62.216 13.796 62.852 13.508 63.356 13.316C63.884 13.124 64.412 13.028 64.94 13.028V15.152C64.628 15.152 64.208 15.248 63.68 15.44C63.152 15.608 62.216 16.016 60.872 16.664V32H57.992V13.28ZM71.3688 32C70.0488 32 68.9928 31.604 68.2008 30.812C67.4328 30.02 67.0488 28.952 67.0488 27.608V18.032C67.0488 16.472 67.4808 15.248 68.3448 14.36C69.2088 13.472 70.4928 13.028 72.1968 13.028C73.9008 13.028 75.1728 13.472 76.0128 14.36C76.8768 15.248 77.3088 16.472 77.3088 18.032V19.688C77.3088 20.696 77.0208 21.464 76.4448 21.992C75.8688 22.496 75.1128 22.88 74.1768 23.144L69.9288 24.332V27.86C69.9288 28.436 70.0968 28.916 70.4328 29.3C70.7928 29.66 71.2488 29.84 71.8008 29.84H75.6888V32H71.3688ZM72.1248 21.452C72.9168 21.236 73.4448 21.08 73.7088 20.984C73.9968 20.864 74.1888 20.696 74.2848 20.48C74.3808 20.264 74.4288 19.904 74.4288 19.4V17.42C74.4288 16.652 74.2248 16.088 73.8168 15.728C73.4328 15.368 72.8928 15.188 72.1968 15.188C71.5248 15.188 70.9728 15.38 70.5408 15.764C70.1328 16.148 69.9288 16.7 69.9288 17.42V22.064L72.1248 21.452ZM83.9916 32C83.1276 32 82.3236 31.784 81.5796 31.352C80.8596 30.92 80.2836 30.332 79.8516 29.588C79.4436 28.844 79.2396 28.004 79.2396 27.068V25.196C79.2396 24.068 79.5156 23.12 80.0676 22.352C80.6436 21.584 81.3516 21.044 82.1916 20.732L86.6556 19.076V17.384C86.6556 16.808 86.4756 16.34 86.1156 15.98C85.7796 15.596 85.3356 15.404 84.7836 15.404H80.7156V13.28H85.0356C86.3556 13.28 87.3996 13.676 88.1676 14.468C88.9596 15.236 89.3556 16.292 89.3556 17.636V32H83.9916ZM86.6556 29.804V21.344L83.4876 22.532C82.8636 22.772 82.4196 23.096 82.1556 23.504C81.9156 23.912 81.7956 24.56 81.7956 25.448V27.464C81.7956 28.112 82.0356 28.664 82.5156 29.12C82.9956 29.576 83.5716 29.804 84.2436 29.804H86.6556ZM98.5441 32C97.2241 32 96.1801 31.604 95.4121 30.812C94.6441 30.02 94.2601 28.952 94.2601 27.608V15.44H92.1001V13.28H94.2601V7.844L97.1401 6.764V13.28H100.02V15.44H97.1401V27.86C97.1401 28.436 97.2961 28.916 97.6081 29.3C97.9441 29.66 98.3881 29.84 98.9401 29.84H100.02V32H98.5441ZM106.631 32C105.311 32 104.255 31.604 103.463 30.812C102.695 30.02 102.311 28.952 102.311 27.608V18.032C102.311 16.472 102.743 15.248 103.607 14.36C104.471 13.472 105.755 13.028 107.459 13.028C109.163 13.028 110.435 13.472 111.275 14.36C112.139 15.248 112.571 16.472 112.571 18.032V19.688C112.571 20.696 112.283 21.464 111.707 21.992C111.131 22.496 110.375 22.88 109.439 23.144L105.191 24.332V27.86C105.191 28.436 105.359 28.916 105.695 29.3C106.055 29.66 106.511 29.84 107.063 29.84H110.951V32H106.631ZM107.387 21.452C108.179 21.236 108.707 21.08 108.971 20.984C109.259 20.864 109.451 20.696 109.547 20.48C109.643 20.264 109.691 19.904 109.691 19.4V17.42C109.691 16.652 109.487 16.088 109.079 15.728C108.695 15.368 108.155 15.188 107.459 15.188C106.787 15.188 106.235 15.38 105.803 15.764C105.395 16.148 105.191 16.7 105.191 17.42V22.064L107.387 21.452ZM120.189 32C118.677 32 117.453 31.556 116.517 30.668C115.581 29.78 115.113 28.592 115.113 27.104V18.14C115.113 17.108 115.389 16.232 115.941 15.512C116.517 14.792 117.225 14.3 118.065 14.036L122.889 12.344V6.8H125.769V32H120.189ZM122.889 29.84V14.72L119.685 15.8C119.061 15.992 118.617 16.304 118.353 16.736C118.113 17.144 117.993 17.804 117.993 18.716V27.104C117.993 27.968 118.245 28.64 118.749 29.12C119.253 29.6 119.937 29.84 120.801 29.84H122.889ZM133.842 32C132.522 32 131.466 31.604 130.674 30.812C129.906 30.02 129.522 28.952 129.522 27.608V18.032C129.522 16.472 129.954 15.248 130.818 14.36C131.682 13.472 132.966 13.028 134.67 13.028C136.374 13.028 137.646 13.472 138.486 14.36C139.35 15.248 139.782 16.472 139.782 18.032V19.688C139.782 20.696 139.494 21.464 138.918 21.992C138.342 22.496 137.586 22.88 136.65 23.144L132.402 24.332V27.86C132.402 28.436 132.57 28.916 132.906 29.3C133.266 29.66 133.722 29.84 134.274 29.84H138.162V32H133.842ZM134.598 21.452C135.39 21.236 135.918 21.08 136.182 20.984C136.47 20.864 136.662 20.696 136.758 20.48C136.854 20.264 136.902 19.904 136.902 19.4V17.42C136.902 16.652 136.698 16.088 136.29 15.728C135.906 15.368 135.366 15.188 134.67 15.188C133.998 15.188 133.446 15.38 133.014 15.764C132.606 16.148 132.402 16.7 132.402 17.42V22.064L134.598 21.452ZM141.568 29.84H144.628C145.66 29.84 146.404 29.564 146.86 29.012C147.34 28.436 147.58 27.692 147.58 26.78C147.58 26.06 147.364 25.448 146.932 24.944C146.5 24.44 145.852 23.852 144.988 23.18C144.244 22.58 143.644 22.064 143.188 21.632C142.756 21.176 142.372 20.624 142.036 19.976C141.724 19.304 141.568 18.536 141.568 17.672C141.568 16.4 141.988 15.356 142.828 14.54C143.692 13.7 144.844 13.28 146.284 13.28H149.416V15.44H146.824C145.12 15.44 144.268 16.244 144.268 17.852C144.268 18.476 144.46 19.016 144.844 19.472C145.228 19.928 145.828 20.468 146.644 21.092C147.388 21.668 148 22.196 148.48 22.676C148.96 23.132 149.368 23.72 149.704 24.44C150.04 25.136 150.208 25.964 150.208 26.924C150.208 28.628 149.752 29.9 148.84 30.74C147.952 31.58 146.692 32 145.06 32H141.568V29.84ZM153.441 10.22V7.34H156.321V10.22H153.441ZM153.441 32V13.28H156.321V32H153.441ZM162.16 35.6H165.868C166.42 35.6 166.852 35.408 167.164 35.024C167.5 34.664 167.668 34.196 167.668 33.62V32.036H164.68C163.36 32.036 162.244 31.604 161.332 30.74C160.42 29.876 159.964 28.796 159.964 27.5V17.816C159.964 16.52 160.42 15.44 161.332 14.576C162.268 13.712 163.396 13.28 164.716 13.28H170.584V33.368C170.584 34.712 170.212 35.78 169.468 36.572C168.748 37.364 167.728 37.76 166.408 37.76H162.16V35.6ZM167.704 29.876V15.44H165.292C164.62 15.44 164.044 15.668 163.564 16.124C163.084 16.58 162.844 17.144 162.844 17.816V27.5C162.844 28.172 163.084 28.736 163.564 29.192C164.044 29.648 164.62 29.876 165.292 29.876H167.704ZM174.535 13.28H176.767L177.091 14.324L178.567 13.892C179.575 13.58 180.367 13.364 180.943 13.244C181.543 13.1 182.107 13.028 182.635 13.028C183.499 13.028 184.135 13.328 184.543 13.928C184.951 14.528 185.155 15.308 185.155 16.268V32H182.275V17.204C182.275 16.508 182.227 16.028 182.131 15.764C182.035 15.476 181.795 15.332 181.411 15.332C181.219 15.332 179.887 15.716 177.415 16.484V32H174.535V13.28Z" fill="white"/>
<path d="M118.955 151.57H116.255V148.6H118.955V145.99C118.955 144.31 119.435 142.975 120.395 141.985C121.355 140.995 122.66 140.5 124.31 140.5H126.29V143.2H124.94C124.25 143.2 123.68 143.44 123.23 143.92C122.78 144.4 122.555 144.985 122.555 145.675V148.6H126.2V151.57H122.555V172H118.955V151.57ZM131.869 172.315C130.789 172.315 129.979 171.94 129.439 171.19C128.929 170.44 128.674 169.465 128.674 168.265V148.6H132.274V167.095C132.274 167.935 132.334 168.535 132.454 168.895C132.574 169.255 132.859 169.435 133.309 169.435C133.519 169.435 135.214 168.985 138.394 168.085V148.6H141.994V172H139.429L138.754 170.47C138.274 170.65 137.914 170.77 137.674 170.83C136.264 171.34 135.124 171.715 134.254 171.955C133.384 172.195 132.589 172.315 131.869 172.315ZM147.405 148.6H150.195L150.6 150.265L151.725 149.725C152.685 149.245 153.48 148.885 154.11 148.645C154.77 148.405 155.43 148.285 156.09 148.285V150.94C155.7 150.94 155.175 151.06 154.515 151.3C153.855 151.51 152.685 152.02 151.005 152.83V172H147.405V148.6ZM159.446 148.6H162.236L162.641 149.905L164.486 149.365C165.746 148.975 166.736 148.705 167.456 148.555C168.206 148.375 168.911 148.285 169.571 148.285C170.651 148.285 171.446 148.66 171.956 149.41C172.466 150.16 172.721 151.135 172.721 152.335V172H169.121V153.505C169.121 152.635 169.061 152.035 168.941 151.705C168.821 151.345 168.521 151.165 168.041 151.165C167.801 151.165 166.136 151.645 163.046 152.605V172H159.446V148.6ZM177.727 144.775V141.175H181.327V144.775H177.727ZM177.727 172V148.6H181.327V172H177.727ZM193.261 172C191.611 172 190.306 171.505 189.346 170.515C188.386 169.525 187.906 168.19 187.906 166.51V151.3H185.206V148.6H187.906V141.805L191.506 140.455V148.6H195.106V151.3H191.506V166.825C191.506 167.545 191.701 168.145 192.091 168.625C192.511 169.075 193.066 169.3 193.756 169.3H195.106V172H193.261ZM201.434 172.315C200.354 172.315 199.544 171.94 199.004 171.19C198.494 170.44 198.239 169.465 198.239 168.265V148.6H201.839V167.095C201.839 167.935 201.899 168.535 202.019 168.895C202.139 169.255 202.424 169.435 202.874 169.435C203.084 169.435 204.779 168.985 207.959 168.085V148.6H211.559V172H208.994L208.319 170.47C207.839 170.65 207.479 170.77 207.239 170.83C205.829 171.34 204.689 171.715 203.819 171.955C202.949 172.195 202.154 172.315 201.434 172.315ZM216.971 148.6H219.761L220.166 150.265L221.291 149.725C222.251 149.245 223.046 148.885 223.676 148.645C224.336 148.405 224.996 148.285 225.656 148.285V150.94C225.266 150.94 224.741 151.06 224.081 151.3C223.421 151.51 222.251 152.02 220.571 152.83V172H216.971V148.6ZM233.692 172C232.042 172 230.722 171.505 229.732 170.515C228.772 169.525 228.292 168.19 228.292 166.51V154.54C228.292 152.59 228.832 151.06 229.912 149.95C230.992 148.84 232.597 148.285 234.727 148.285C236.857 148.285 238.447 148.84 239.497 149.95C240.577 151.06 241.117 152.59 241.117 154.54V156.61C241.117 157.87 240.757 158.83 240.037 159.49C239.317 160.12 238.372 160.6 237.202 160.93L231.892 162.415V166.825C231.892 167.545 232.102 168.145 232.522 168.625C232.972 169.075 233.542 169.3 234.232 169.3H239.092V172H233.692ZM234.637 158.815C235.627 158.545 236.287 158.35 236.617 158.23C236.977 158.08 237.217 157.87 237.337 157.6C237.457 157.33 237.517 156.88 237.517 156.25V153.775C237.517 152.815 237.262 152.11 236.752 151.66C236.272 151.21 235.597 150.985 234.727 150.985C233.887 150.985 233.197 151.225 232.657 151.705C232.147 152.185 231.892 152.875 231.892 153.775V159.58L234.637 158.815Z" fill="white"/>
</svg>
